<svg width="343" height="344" viewBox="0 0 343 344" fill="none" xmlns="http://www.w3.org/2000/svg">
<path fill-rule="evenodd" clip-rule="evenodd" d="M236.571 43.1744C182.866 34.3382 188.342 122.788 116.884 110.682C43.7944 98.2995 21.9493 185.651 43.7944 233.901C67.3884 286.013 218.466 314.028 272.514 275.612C333.346 232.375 337.336 59.7535 236.571 43.1744Z" fill="#FF7FA0"/>
<path fill-rule="evenodd" clip-rule="evenodd" d="M117.3 138.131C117.3 138.131 123.466 151.616 128.822 157.867C136.422 166.738 147.275 174.107 151.351 181.026C161.035 197.466 156.739 205.507 156.739 205.507C156.739 205.507 151.624 187.785 144.291 179.13C138.694 172.523 127.701 165.196 124.027 159.771C117.408 149.998 113.989 140.635 113.989 140.635L117.3 138.131Z" fill="white"/>
<path d="M193.432 281.659C168.148 282.843 142.881 284.414 117.645 286.371C114.409 286.692 112.014 286.74 112.142 287.084C109.867 286.939 105.754 285.698 103.363 286.692C105.164 287.111 108.569 288.707 108.771 290.55C84.9557 291.928 61.0082 290.998 37.3702 287.779C60.5146 289.361 83.7295 289.904 106.922 289.406C103.933 287.394 100.09 286.709 96.593 287.566C101.1 285.38 106.324 284.714 111.233 285.698C107.487 281.495 105.005 276.174 104.188 270.597C107.93 273.164 110.922 276.815 112.708 280.994C112.537 273.139 118.08 265.507 125.586 263.26C120.793 269.383 118.259 277.246 118.572 285.025C142.538 282.971 166.557 281.535 190.596 280.718C189.41 279.774 188.603 278.363 188.389 276.86C189.564 275.854 191.301 275.558 192.741 276.118C193.799 267.72 199.624 260.094 207.433 256.884C203.084 261.811 200.062 267.905 198.77 274.357C200.112 273.542 201.811 273.345 203.303 273.83C202.877 275.65 201.813 277.312 200.341 278.457C230.106 271.634 261.352 283.258 291.588 278.995C276.325 283.945 259.833 280.107 243.877 278.442C220.521 276.118 198.089 280.718 193.432 281.659Z" fill="white"/>
<path d="M256.414 100.079C256.676 97.581 258.82 95.7082 261.02 94.5062C264.998 92.3322 269.683 91.4838 274.168 92.125C276.199 92.4154 277.748 90.4746 279.199 89.0202C282.965 85.2456 288.721 83.8675 293.974 84.7394C299.227 85.6114 303.987 88.5217 307.821 92.2274C311.654 95.9331 314.647 100.417 317.416 104.978C317.997 105.935 319.345 105.96 320.46 105.905C322.868 105.787 325.401 105.854 327.504 107.034C329.606 108.215 331.084 110.837 330.233 113.098C329.835 114.157 328.989 115.001 328.022 115.586C326.094 116.751 323.756 116.952 321.511 117.124C306.54 118.27 291.569 119.417 276.599 120.563C272.502 120.877 268.342 121.187 264.319 120.351C260.296 119.516 256.358 117.365 254.299 113.8C252.239 110.235 252.584 105.157 255.743 102.523C256.41 101.967 256.323 100.945 256.414 100.079" fill="white"/>
<path d="M206.303 123.084C209.571 126.848 226.437 125.53 226.984 132.417C225.052 132.948 223.119 133.48 221.187 134.011C218.045 134.876 214.868 135.754 212.026 137.351C210.693 138.1 209.107 139.027 207.751 138.32C202.506 135.586 196.406 134.737 190.522 135.301C184.638 135.865 178.947 137.788 173.607 140.33C170.819 141.658 167.678 143.19 164.792 142.093C154.258 138.087 142.24 138.157 131.753 142.286C129.893 143.018 127.821 142.205 125.991 141.402C124.012 140.534 122.032 139.665 120.053 138.797C122.606 135.869 133.518 131.796 135.743 128.962C136.133 128.464 150.704 118.33 166.682 122.909C167.398 122.572 192.248 118.33 206.303 123.084Z" fill="white"/>
<path fill-rule="evenodd" clip-rule="evenodd" d="M140.994 170.94C131.729 162.108 121.033 153.168 118.538 140.596C123.117 152.391 133.286 160.882 142.204 169.838C151.122 178.793 159.569 189.965 159.018 202.61C173.6 199.417 188.711 198.669 203.535 200.405C205.055 193.542 209.478 187.763 212.949 181.655C221.553 166.512 224.462 148.883 227.227 131.675C227.926 127.325 222.615 124.746 218.357 123.658C214.105 122.572 209.852 121.485 205.6 120.398C197.608 118.356 189.328 116.299 181.199 117.696C175.703 118.64 170.274 121.152 164.777 120.211C156.026 118.714 146.742 120.61 139.272 125.42C135.517 127.838 132.179 130.972 128.08 132.741C119.452 136.464 111.853 142.551 106.326 150.168C103.438 135.187 108.303 119.856 113.991 105.705C120.35 89.8852 128.331 73.8792 142.012 63.7465C162.069 48.8905 188.22 51.7821 209.085 65.4743C229.95 79.1665 242.699 101.745 246.819 126.409C247.298 129.277 247.638 132.382 246.291 134.958C244.945 137.534 244.437 139.025 242.241 137.124C240.37 135.504 238.378 133.824 235.95 133.358C233.521 132.891 230.575 134.157 230.105 136.591C226.657 154.418 223.036 172.697 213.457 188.107C210.962 192.12 208.057 195.952 206.471 200.405C205.257 203.812 204.866 207.45 204.483 211.048C203.686 218.546 202.889 226.043 202.092 233.54C201.756 236.7 201.288 240.142 198.992 242.333C196.801 244.425 193.538 244.801 190.524 245.07C180.736 245.942 170.947 246.813 161.159 247.685C159.408 247.841 157.423 247.921 156.145 246.712C155.16 245.78 154.887 244.337 154.693 242.993C153.318 233.455 153.318 223.718 154.694 214.18C156.668 200.495 150.562 186.494 140.943 176.587C135.931 171.424 130.02 167.204 125.016 162.033C120.012 156.862 115.823 150.363 115.523 143.163C118.928 152.626 125.203 161.028 133.3 166.967C145.399 175.841 154.02 189.361 156.976 204.1C159.3 191.494 150.259 179.771 140.994 170.94Z" fill="white"/>
<path fill-rule="evenodd" clip-rule="evenodd" d="M115.957 199.744C114.489 198.936 113.948 197.126 113.562 195.492C111.668 187.475 110.283 179.336 109.419 171.143C109.364 170.622 109.339 170.021 109.717 169.659C110.527 170.616 110.67 171.954 110.794 173.203C111.687 182.185 113.418 191.083 115.957 199.744Z" fill="#00160A"/>
<path fill-rule="evenodd" clip-rule="evenodd" d="M232.389 172.434C233.719 167.971 234.7 163.404 235.32 158.787C235.404 158.162 235.638 157.376 236.265 157.328C236.631 157.648 236.596 158.22 236.527 158.702C235.937 162.818 235.095 166.898 234.008 170.911C233.787 171.725 233.169 172.748 232.389 172.434H232.389Z" fill="#00160A"/>
<path fill-rule="evenodd" clip-rule="evenodd" d="M198.478 279.713C199.204 277.736 200.534 275.987 202.242 274.761C200.427 274.872 198.661 275.665 197.369 276.949C198.081 271.352 199.866 265.894 202.598 260.962C197.544 265.122 194.282 271.401 193.779 277.939C192.575 277.235 191.073 277.065 189.743 277.482C190.973 278.874 192.202 280.267 193.432 281.659C168.148 282.843 142.881 284.414 117.645 286.371C116.333 279.377 118.039 271.865 122.242 266.131C116.696 270.054 113.272 276.826 113.393 283.632C110.92 280.324 109.688 275.598 105.974 273.707C106.632 276.949 107.39 277.678 111.753 286.053C111.931 286.396 112.014 286.74 112.142 287.084C109.867 286.939 105.754 285.698 103.363 286.692C105.164 287.111 108.569 288.707 108.771 290.55C84.9557 291.928 61.0082 290.998 37.3702 287.779C60.5146 289.361 83.7295 289.904 106.922 289.406C103.933 287.394 100.09 286.709 96.593 287.566C101.1 285.38 106.324 284.714 111.233 285.698C107.487 281.495 105.005 276.174 104.188 270.597C107.93 273.164 110.922 276.815 112.708 280.994C112.537 273.139 118.08 265.507 125.586 263.26C120.793 269.383 118.259 277.246 118.572 285.025C142.538 282.971 166.557 281.535 190.596 280.718C189.41 279.774 188.603 278.363 188.389 276.86C189.564 275.854 191.301 275.558 192.741 276.118C193.799 267.72 199.624 260.094 207.433 256.884C203.084 261.811 200.062 267.905 198.77 274.357C200.112 273.542 201.811 273.345 203.303 273.83C202.877 275.65 201.813 277.312 200.341 278.457C230.106 271.634 261.352 283.258 291.588 278.995C276.325 283.945 259.833 280.107 243.877 278.442C228.776 276.866 213.468 277.295 198.478 279.713Z" fill="#00160A"/>
<path fill-rule="evenodd" clip-rule="evenodd" d="M211.881 170.562C212.246 171.1 212.131 171.819 211.984 172.453C211.1 176.26 209.542 179.908 207.405 183.175C206.81 182.432 207.357 181.355 207.858 180.545C209.189 178.389 210.168 176.015 210.742 173.545C210.986 172.497 211.182 171.379 211.881 170.562H211.881Z" fill="#00160A"/>
<path fill-rule="evenodd" clip-rule="evenodd" d="M206.183 177.472C205.633 176.996 205.879 176.111 206.143 175.432C206.989 173.252 207.558 170.963 207.831 168.64C207.922 167.869 208.066 166.963 208.759 166.617C209.085 166.913 209.036 167.431 208.96 167.865C208.386 171.166 207.789 174.534 206.183 177.472Z" fill="#00160A"/>
<path fill-rule="evenodd" clip-rule="evenodd" d="M160.42 189.774C160.582 189.629 160.832 189.778 160.982 189.935C161.651 190.638 162.051 191.594 162.08 192.567C161.184 192.085 160.528 191.178 160.348 190.175C160.323 190.035 160.315 189.869 160.42 189.774L160.42 189.774Z" fill="#00160A"/>
<path fill-rule="evenodd" clip-rule="evenodd" d="M230.928 160.299C230.689 164.537 229.724 168.733 228.088 172.648C228.046 172.749 228 172.854 227.917 172.926C227.674 173.136 227.265 172.909 227.178 172.6C227.091 172.29 227.215 171.965 227.332 171.666C228.487 168.736 229.252 165.652 229.603 162.522C229.707 161.591 230 160.408 230.928 160.299L230.928 160.299Z" fill="#00160A"/>
<path fill-rule="evenodd" clip-rule="evenodd" d="M158.859 182.465C157.287 180.333 156.023 177.974 155.118 175.482C155.001 175.162 155.072 174.621 155.4 174.71C155.524 174.744 155.597 174.867 155.658 174.98C157.023 177.533 158.388 180.086 159.754 182.639C159.684 183.023 159.091 182.779 158.859 182.465H158.859Z" fill="#00160A"/>
<path fill-rule="evenodd" clip-rule="evenodd" d="M114.092 138.162C113.37 137.786 113.341 136.776 113.427 135.965C115.043 120.842 122.384 106.405 133.641 96.2129C133.899 98.1315 132.423 99.7932 131.113 101.216C121.787 111.348 115.741 124.471 114.092 138.162Z" fill="#00160A"/>
<path fill-rule="evenodd" clip-rule="evenodd" d="M208.718 138.147C208.924 133.181 208.096 127.717 206.303 123.084C209.571 126.848 209.706 132.325 209.672 137.316C214.884 134.207 220.919 132.499 226.984 132.417C225.052 132.948 223.119 133.48 221.187 134.011C218.045 134.876 214.868 135.754 212.026 137.351C210.693 138.1 209.107 139.027 207.751 138.32C202.506 135.586 196.406 134.737 190.522 135.301C184.638 135.865 178.947 138.247 173.607 140.789C170.819 142.116 167.678 143.649 164.792 142.552C154.258 138.546 142.24 138.157 131.753 142.286C129.893 143.018 127.821 142.205 125.991 141.402C124.012 140.534 122.032 139.665 120.053 138.797C122.354 139.281 128.067 141.342 128.067 141.342C128.067 141.342 129.713 141.542 130.231 140.908C130.749 140.274 130.913 139.431 131.099 138.633C131.921 135.122 133.518 131.796 135.743 128.962C136.133 128.464 136.97 127.999 137.282 128.551C134.203 132.129 132.15 136.586 131.429 141.257C142.65 137.013 155.455 137.147 166.586 141.625C167.649 135.449 167.682 129.096 166.682 122.909C167.398 122.572 167.923 123.642 167.994 124.432C168.507 130.186 168.415 135.994 167.719 141.728C174.157 138.61 180.833 135.792 187.891 134.654C194.95 133.517 202.484 134.636 208.718 138.147Z" fill="#00160A"/>
<path fill-rule="evenodd" clip-rule="evenodd" d="M126.9 125.818C130.265 116.159 135.511 107.163 142.255 99.4861C142.749 98.9232 143.337 98.3254 144.085 98.2999C144.832 98.2745 145.534 99.2544 145.007 99.7863C137.248 107.609 131.196 117.127 127.396 127.482C126.712 127.5 126.674 126.465 126.9 125.818H126.9Z" fill="#00160A"/>
<path fill-rule="evenodd" clip-rule="evenodd" d="M116.268 169.312C116.367 169.432 116.378 169.599 116.386 169.755C116.709 176.187 118.339 182.473 119.96 188.705C120.029 188.971 119.642 189.164 119.399 189.036C119.156 188.909 119.05 188.623 118.965 188.362C117.074 182.523 115.866 176.462 115.376 170.342C115.352 170.037 115.335 169.708 115.497 169.449C115.659 169.189 116.075 169.075 116.268 169.312H116.268Z" fill="#00160A"/>
<path fill-rule="evenodd" clip-rule="evenodd" d="M166.936 117.076C166.261 117.104 166.041 116.184 166.051 115.506C166.153 108.421 166.255 101.336 166.357 94.2517C166.369 93.4695 166.58 92.4505 167.355 92.3645C168.045 93.1743 168.03 94.3516 167.979 95.4151C167.631 102.635 167.284 109.856 166.936 117.076Z" fill="#00160A"/>
<path fill-rule="evenodd" clip-rule="evenodd" d="M231.981 127.919C233.477 125.481 233.376 122.414 233.124 119.563C232.682 114.569 231.924 109.602 230.856 104.704C230.754 104.234 230.693 103.643 231.087 103.369C231.413 103.144 231.889 103.3 232.144 103.603C232.399 103.907 232.489 104.314 232.567 104.703C233.792 110.792 234.35 117.017 234.227 123.228C234.182 125.537 233.805 128.247 231.783 129.354C231.395 128.999 231.705 128.368 231.981 127.919H231.981Z" fill="#00160A"/>
<path fill-rule="evenodd" clip-rule="evenodd" d="M208.271 111.505C208.779 113.769 208.564 116.192 207.664 118.33C207.045 117.664 207.219 116.62 207.326 115.716C207.742 112.207 206.517 108.712 205.01 105.517C203.503 102.322 201.682 99.2372 200.777 95.8218C200.64 95.308 200.661 94.5638 201.184 94.4729C201.625 94.3962 201.926 94.8968 202.09 95.3146C203.783 99.6168 205.477 103.919 207.17 108.221C207.593 109.296 208.018 110.377 208.271 111.505Z" fill="#00160A"/>
<path fill-rule="evenodd" clip-rule="evenodd" d="M254.127 98.7035C254.389 96.205 256.534 94.3322 258.733 93.1302C262.712 90.9562 267.396 90.1079 271.881 90.7491C273.912 91.0394 275.461 89.0986 276.912 87.6442C280.678 83.8696 286.434 82.4915 291.687 83.3635C296.94 84.2354 301.7 87.1457 305.534 90.8514C309.368 94.5572 312.36 99.0412 315.13 103.602C315.711 104.559 317.058 104.584 318.174 104.529C320.581 104.411 323.114 104.478 325.217 105.658C327.32 106.839 328.798 109.461 327.947 111.722C327.548 112.781 326.702 113.625 325.735 114.21C323.807 115.375 321.469 115.576 319.224 115.748C304.253 116.894 289.283 118.041 274.312 119.187C270.216 119.501 266.055 119.811 262.032 118.975C258.01 118.14 254.071 115.989 252.012 112.424C249.953 108.859 250.297 103.781 253.456 101.147C254.124 100.591 254.036 99.5692 254.127 98.7035M259.798 93.9053C258.006 94.7618 256.218 96.0229 255.627 97.9239C255.417 98.6011 255.374 99.3205 255.178 100.002C254.672 101.77 253.214 103.098 252.444 104.767C250.84 108.248 252.668 112.577 255.726 114.878C258.785 117.179 262.746 117.863 266.56 118.132C280.287 119.102 293.937 115.609 307.694 115.261C313.097 115.125 318.673 115.448 323.728 113.528C325.641 112.801 327.744 110.963 326.922 109.083C326.715 108.609 326.341 108.228 325.949 107.89C323.529 105.802 320.063 105.004 316.978 105.823C315.404 106.24 314.09 104.639 313.228 103.254C309.479 97.2281 305.234 91.2216 299.177 87.54C293.121 83.8585 284.816 83.0534 279.182 87.3574C276.65 89.2915 274.295 92.2966 271.13 91.96C267.271 91.5494 263.302 92.2308 259.798 93.9053Z" fill="#00160A"/>
<path fill-rule="evenodd" clip-rule="evenodd" d="M50.1483 76.2485C49.6432 77.8299 50.2799 79.5318 50.9703 81.0412C51.7726 82.7953 53.0912 84.7741 55.0117 84.6525C60.9422 84.2768 66.8727 83.9012 72.8032 83.5256C73.6624 83.4712 74.8445 83.6958 74.8496 84.5593C67.4128 85.1563 59.976 85.7532 52.5392 86.3502C47.5368 86.7518 42.306 87.2276 38.0821 89.9454C33.8582 92.6632 31.1049 98.3936 33.3833 102.878C34.2466 104.577 35.9409 105.998 37.8416 105.941C42.9639 105.788 48.0863 105.635 53.2087 105.482C54.4021 105.446 56.0354 105.824 55.9819 107.02C47.8415 106.533 39.6531 106.855 31.576 107.983C28.6761 108.387 25.6932 108.933 23.2614 110.568C20.8296 112.204 19.0823 115.206 19.7632 118.062C20.2332 120.033 21.7727 121.616 23.553 122.575C25.3333 123.533 27.3485 123.949 29.3414 124.284C50.4751 127.843 72.1557 123.681 93.5291 125.235C95.9205 125.409 98.5095 125.746 100.213 127.438C81.7732 123.889 62.757 127.85 44.0018 126.96C39.8271 126.762 35.668 126.323 31.5117 125.885C28.1097 125.526 24.5454 125.108 21.7389 123.147C20.3886 122.203 19.2567 120.899 18.6918 119.349C17.2925 115.508 19.7619 111.12 23.2416 108.988C26.7214 106.857 30.9439 106.435 35.0045 106.064C31.6857 103.787 30.699 98.9892 32.1349 95.222C33.5707 91.4547 36.986 88.7079 40.7291 87.2337C44.4722 85.7595 48.5503 85.4034 52.5672 85.2136C51.3827 83.6575 50.1804 82.0694 49.5182 80.2277C48.8561 78.3859 48.8073 76.2166 49.8638 74.5704C50.5986 73.4255 51.7769 72.6506 52.9528 71.9701C64.2009 65.4609 77.7977 64.7052 90.78 65.028C94.3077 65.1157 97.9504 65.2991 101.123 66.8486C106.045 69.2524 109.036 74.8103 109.066 80.3004C109.096 85.7905 106.447 91.0879 102.554 94.9478C101.929 94.0789 102.71 92.9239 103.395 92.1016C106.567 88.294 108.369 83.2175 107.694 78.3026C107.019 73.3876 103.657 68.7904 98.9696 67.2042C97.011 66.5413 94.9198 66.4013 92.8554 66.2958C79.4311 65.6098 65.3621 66.3144 53.605 72.8486C52.1577 73.6529 50.6531 74.6681 50.1483 76.2485Z" fill="#00160A"/>
<path fill-rule="evenodd" clip-rule="evenodd" d="M140.994 170.94C131.729 162.108 121.033 153.168 118.538 140.596C123.117 152.391 133.286 160.882 142.204 169.837C151.122 178.793 159.569 189.965 159.018 202.61C173.6 199.417 188.711 198.669 203.535 200.405C205.055 193.542 209.478 187.763 212.949 181.655C221.553 166.512 224.462 148.883 227.227 131.675C227.926 127.325 222.615 124.746 218.357 123.658C214.105 122.572 209.852 121.485 205.6 120.398C197.608 118.356 189.328 116.299 181.199 117.696C175.703 118.64 170.274 121.152 164.777 120.211C156.026 118.714 146.742 120.61 139.272 125.42C135.517 127.838 132.214 131.123 128.08 132.741C119.129 136.243 113.989 140.485 106.326 150.168C103.438 135.187 108.303 119.856 113.991 105.705C120.35 89.8851 128.331 73.8792 142.012 63.7465C162.069 48.8904 191.422 50.406 212.287 64.0982C233.151 77.7904 245.901 101.745 250.021 126.409C250.5 129.277 250.839 132.382 249.493 134.958C248.146 137.534 244.437 139.025 242.241 137.124C240.37 135.504 238.378 133.824 235.95 133.358C233.521 132.891 230.575 134.157 230.105 136.591C226.657 154.418 223.036 172.697 213.457 188.107C210.962 192.12 208.057 195.951 206.471 200.405C205.257 203.812 204.866 207.45 204.483 211.048C203.686 218.545 202.889 226.043 202.092 233.54C201.756 236.7 201.288 240.142 198.992 242.333C196.801 244.425 193.538 244.801 190.524 245.07C180.736 245.941 170.947 246.813 161.159 247.685C159.408 247.841 157.423 247.921 156.145 246.712C155.16 245.78 154.887 244.337 154.693 242.993C153.318 233.455 153.318 223.718 154.694 214.18C156.668 200.495 150.562 186.494 140.943 176.587C135.931 171.424 130.02 167.204 125.016 162.033C120.012 156.862 115.823 150.363 115.523 143.163C118.928 152.626 125.203 161.028 133.3 166.966C145.399 175.841 154.02 189.361 156.976 204.099C159.3 191.494 150.259 179.771 140.994 170.94ZM161.774 118.472C165.711 118.858 169.834 119.839 173.508 118.369C183.401 114.412 194.878 114.621 204.622 118.937C208.78 120.779 213.461 120.88 217.939 121.666C222.417 122.452 227.144 124.244 229.424 128.189C231.985 132.618 239.509 131.394 242.424 135.596C243.633 137.339 246.608 136.675 247.753 134.889C248.897 133.103 248.743 130.804 248.487 128.696C246.404 111.541 240.139 94.72 229.329 81.2618C218.518 67.8036 203.009 57.9069 185.994 55.1707C168.979 52.4346 150.62 57.2714 138.027 69.0682C130.405 76.2083 125.118 85.4713 120.473 94.8369C112.382 111.149 105.759 128.957 107.066 147.128C112.496 140.538 118.395 133.624 126.539 131.101C128.484 130.498 130.615 130.111 132.091 128.705C139.915 121.254 151.036 117.42 161.774 118.472ZM170.477 230.903C170.447 235.284 171.101 239.669 172.409 243.849C172.52 244.206 172.658 244.59 172.975 244.788C173.282 244.98 173.674 244.944 174.034 244.901C178.411 244.376 182.788 243.851 187.166 243.326C187.326 243.306 187.505 243.277 187.601 243.146C187.701 243.011 187.671 242.823 187.636 242.658C186.848 238.945 186.06 235.231 185.272 231.518C185.228 231.309 185.177 231.088 185.03 230.934C184.85 230.744 184.569 230.699 184.309 230.666C180.01 230.12 175.667 229.917 171.335 230.059C171.081 230.067 170.798 230.091 170.631 230.283C170.489 230.447 170.478 230.685 170.477 230.903ZM184.368 215.424C184.224 215.226 183.951 215.187 183.708 215.166C179.295 214.774 174.842 214.838 170.442 215.357C170.187 215.387 169.917 215.425 169.72 215.589C169.397 215.859 169.394 216.347 169.419 216.768C169.566 219.268 169.713 221.768 169.86 224.267C169.895 224.878 170.132 225.683 170.741 225.653C175.057 225.436 179.391 225.594 183.679 226.126C184.269 226.2 184.496 225.383 184.495 224.787C184.49 221.841 184.485 218.895 184.48 215.949C184.48 215.767 184.476 215.571 184.368 215.424ZM157.011 232.408C156.678 232.559 156.337 232.73 156.112 233.018C155.752 233.477 155.767 234.118 155.8 234.701C155.913 236.747 156.026 238.793 156.139 240.839C156.196 241.874 156.256 242.927 156.606 243.903C156.956 244.878 157.644 245.784 158.613 246.145C159.411 246.443 160.295 246.343 161.141 246.239C162.741 246.041 164.341 245.844 165.942 245.647C166.599 245.566 167.279 245.477 167.841 245.127C166.342 240.559 165.345 235.824 164.875 231.038C164.842 230.703 164.393 230.624 164.058 230.645C161.628 230.799 159.228 231.399 157.011 232.408ZM200.066 226.929C200.54 223.992 201.014 221.056 201.488 218.119C201.529 217.862 201.564 217.574 201.414 217.362C201.261 217.146 200.972 217.087 200.712 217.045C197.243 216.486 193.765 215.982 190.28 215.532C190.019 215.499 189.701 215.488 189.551 215.705C189.461 215.835 189.464 216.005 189.47 216.163C189.596 219.224 189.722 222.286 189.848 225.348C189.86 225.627 189.886 225.94 190.094 226.126C190.242 226.257 190.447 226.293 190.642 226.325C193.567 226.799 196.493 227.272 199.418 227.746C199.801 227.808 200.004 227.313 200.066 226.929ZM169.655 209.605C169.593 209.943 169.571 210.376 169.871 210.542C170.015 210.622 170.191 210.608 170.354 210.593C174.942 210.151 179.529 209.709 184.116 209.267C184.353 209.244 184.603 209.216 184.794 209.074C185.053 208.88 185.133 208.531 185.194 208.213C185.568 206.272 185.942 204.332 186.316 202.392C186.369 202.116 186.402 201.779 186.183 201.603C186.031 201.481 185.814 201.491 185.619 201.507C181.222 201.877 176.824 202.246 172.427 202.615C172.068 202.645 171.693 202.68 171.389 202.875C170.874 203.203 170.719 203.873 170.608 204.474C170.29 206.184 169.973 207.895 169.655 209.605ZM190.323 203.223C190.151 204.905 189.979 206.587 189.808 208.269C189.779 208.546 189.755 208.843 189.889 209.087C190.088 209.447 190.546 209.552 190.951 209.62C194.632 210.242 198.312 210.863 201.993 211.485C202.146 211.511 202.309 211.536 202.451 211.475C202.722 211.358 202.782 211.006 202.802 210.71C202.949 208.539 202.981 206.361 202.901 204.186C202.887 203.812 202.867 203.427 202.715 203.085C202.253 202.046 200.881 201.873 199.746 201.85C197.089 201.796 194.432 201.741 191.775 201.687C191.5 201.682 191.211 201.679 190.967 201.807C190.489 202.059 190.378 202.684 190.323 203.223ZM229.509 131.667C227.609 134.15 227.088 137.392 226.606 140.485C224.166 156.126 221.002 172.13 212.42 185.418C209.48 189.971 205.816 194.465 205.4 199.873C207.019 194.243 211.502 189.983 214.58 185.003C216.838 181.349 218.345 177.285 219.725 173.215C223.056 163.391 225.738 153.345 227.747 143.166C228.47 139.507 229.182 135.657 231.532 132.765C230.734 132.757 229.952 132.332 229.509 131.667ZM163.655 226.236C163.91 226.17 164.183 226.092 164.349 225.886C164.527 225.666 164.535 225.357 164.534 225.074C164.531 222.375 164.528 219.675 164.524 216.976C164.524 216.782 164.518 216.57 164.395 216.42C164.219 216.204 163.893 216.212 163.616 216.242C161.481 216.476 159.366 216.898 157.303 217.501C157.061 217.571 156.808 217.652 156.636 217.837C156.438 218.049 156.387 218.356 156.348 218.644C155.947 221.558 155.787 224.506 155.87 227.447C155.876 227.687 155.912 227.971 156.124 228.081C156.271 228.158 156.448 228.117 156.608 228.076C158.957 227.462 161.306 226.849 163.655 226.236ZM198.054 240.778C199.61 238.903 199.623 236.227 199.559 233.788C199.547 233.314 198.99 233.078 198.53 232.965C196.072 232.357 193.575 231.908 191.06 231.621C190.84 231.596 190.599 231.577 190.415 231.702C190.135 231.892 190.138 232.3 190.174 232.637C190.515 235.785 191.167 238.9 192.117 241.92C192.227 242.27 192.372 242.656 192.704 242.814C192.882 242.899 193.087 242.902 193.285 242.896C195.076 242.844 196.908 242.16 198.054 240.778ZM160.472 204.468C159.861 204.644 159.237 204.851 158.756 205.268C158.3 205.664 158.009 206.217 157.783 206.778C157.065 208.561 156.902 210.511 156.746 212.428C156.735 212.574 156.727 212.736 156.816 212.852C156.95 213.027 157.214 213.004 157.43 212.963C159.292 212.613 161.153 212.263 163.015 211.913C163.545 211.813 164.132 211.678 164.433 211.229C164.637 210.923 164.663 210.536 164.682 210.168C164.796 207.962 164.91 205.757 165.024 203.551C163.485 203.731 161.961 204.038 160.472 204.468ZM170.923 213.914C174.989 213.472 179.096 213.418 183.172 213.752C183.634 213.79 184.142 213.82 184.516 213.546C185.103 213.116 185.023 212.23 184.883 211.515C184.847 211.329 184.805 211.131 184.674 210.993C184.467 210.773 184.121 210.782 183.819 210.807C179.75 211.149 175.682 211.492 171.613 211.834C171.051 211.881 170.452 211.943 170.017 212.301C169.581 212.659 169.439 213.426 169.889 213.767C170.173 213.984 170.568 213.952 170.923 213.914ZM201.9 213.589C201.411 213.088 200.675 212.941 199.987 212.818C196.942 212.276 193.897 211.733 190.852 211.19C190.455 211.12 189.967 211.083 189.728 211.409C189.623 211.551 189.594 211.733 189.568 211.908C189.439 212.776 189.546 213.986 190.414 214.101C193.875 214.558 197.336 215.016 200.797 215.473C201.141 215.518 201.509 215.56 201.816 215.398C202.435 215.072 202.389 214.09 201.9 213.589ZM166.822 230.818C166.616 231.386 166.719 232.014 166.827 232.609C167.482 236.247 168.195 239.876 169.011 243.481C169.121 243.967 169.243 244.473 169.565 244.852C169.887 245.232 170.474 245.434 170.894 245.168C171.524 244.767 171.291 243.809 171.02 243.112C169.62 239.51 169.222 235.6 169.029 231.738C168.995 231.061 168.864 230.233 168.229 229.999C167.663 229.79 167.028 230.249 166.822 230.818ZM199.26 231.489C199.997 231.206 199.487 229.945 200.015 229.356C196.954 228.591 193.833 228.066 190.691 227.787C189.949 227.722 189.606 228.842 190.047 229.443C190.488 230.044 191.295 230.215 192.028 230.342C192.689 230.456 193.35 230.571 194.011 230.685C195.562 230.955 197.114 231.224 198.665 231.493C198.863 231.527 199.072 231.56 199.26 231.489ZM171.644 228.729C175.443 228.505 179.263 228.649 183.035 229.156C183.788 229.258 184.833 229.169 184.934 228.413C185.039 227.631 183.988 227.288 183.202 227.249C179.385 227.058 175.561 227.031 171.742 227.169C171.065 227.193 170.138 227.537 170.316 228.192C170.453 228.694 171.126 228.759 171.644 228.729ZM186.229 215.886C186.051 216.259 186.046 216.688 186.044 217.102C186.036 219.435 186.028 221.768 186.019 224.102C186.018 224.619 186.02 225.156 186.237 225.626C186.453 226.095 186.95 226.478 187.458 226.388C188.301 226.238 188.457 225.106 188.411 224.249C188.275 221.766 188.14 219.284 188.005 216.801C187.972 216.191 187.813 215.423 187.216 215.299C186.812 215.214 186.407 215.513 186.229 215.886ZM188.825 232.031C188.656 231.542 188.266 231.092 187.755 231.022C187.245 230.951 186.681 231.411 186.78 231.918C187.378 235.008 187.976 238.098 188.574 241.188C188.714 241.911 188.908 242.716 189.53 243.108C190.153 243.501 191.235 242.975 191.002 242.276C190.057 239.439 189.105 236.553 189.004 233.564C188.987 233.047 188.993 232.519 188.825 232.031ZM168.003 225.439C168.281 224.941 168.259 224.336 168.229 223.767C168.126 221.779 168.023 219.792 167.919 217.804C167.887 217.187 167.834 216.515 167.417 216.06C167.001 215.604 166.088 215.6 165.887 216.185C165.834 216.34 165.839 216.509 165.845 216.673C165.94 219.332 166.034 221.991 166.129 224.65C166.145 225.111 166.195 225.639 166.568 225.909C167.029 226.243 167.725 225.937 168.003 225.439ZM166.578 203.688C166.051 204.418 166.027 205.385 166.024 206.286C166.019 207.527 166.015 208.769 166.01 210.01C166.008 210.675 166.251 211.584 166.911 211.52C167.428 211.469 167.634 210.836 167.72 210.323C168.106 208.018 168.492 205.713 168.878 203.408C168.337 202.689 167.104 202.958 166.578 203.688ZM162.954 229.581C163.498 229.533 164.104 229.486 164.471 229.081C164.838 228.676 164.609 227.812 164.068 227.887C162.399 228.116 160.73 228.345 159.061 228.575C158.195 228.694 157.276 228.836 156.616 229.411C155.957 229.986 155.739 231.154 156.414 231.71C158.398 230.521 160.652 229.787 162.954 229.581ZM156.869 214.592C156.371 215.069 156.281 216.027 156.871 216.384C158.782 215.744 160.761 215.31 162.764 215.09C163.257 215.036 163.781 214.984 164.176 214.683C164.572 214.382 164.746 213.732 164.388 213.387C164.106 213.115 163.657 213.155 163.27 213.213C161.772 213.438 160.275 213.663 158.777 213.889C158.096 213.991 157.368 214.115 156.869 214.592ZM188.09 201.765C187.913 201.954 187.86 202.223 187.814 202.477C187.462 204.417 187.11 206.358 186.759 208.298C186.695 208.649 186.656 209.072 186.929 209.301C187.207 209.534 187.662 209.391 187.882 209.101C188.101 208.811 188.15 208.43 188.19 208.068C188.408 206.123 188.626 204.178 188.844 202.233C188.864 202.059 188.878 201.863 188.769 201.725C188.61 201.523 188.266 201.577 188.09 201.765ZM187.432 227.462C186.7 227.372 185.991 228.31 186.447 228.89C186.766 229.297 187.141 229.711 187.645 229.822C188.148 229.933 188.775 229.564 188.726 229.049C188.657 228.313 188.164 227.551 187.432 227.462ZM187.722 212.567C187.968 211.973 188.028 211.022 187.39 210.948C187.141 210.919 186.905 211.072 186.734 211.256C185.939 212.112 186.35 213.745 187.453 214.121C187.808 213.712 187.932 213.115 187.772 212.597C187.596 212.031 187.495 213.115 187.722 212.567ZM167.963 213.656C167.814 213.108 167.361 212.594 166.795 212.588C166.062 212.581 165.582 213.625 166.064 214.18C166.546 214.734 167.643 214.4 167.736 213.67C167.818 213.024 168.134 214.285 167.963 213.656ZM168.41 228.708C168.585 228.56 168.71 228.354 168.761 228.131C168.279 227.59 167.432 227.414 166.775 227.719C166.63 227.787 166.489 227.88 166.406 228.018C166.17 228.412 166.562 228.943 167.015 229.018C167.468 229.093 167.911 228.872 168.317 228.657L168.41 228.708Z" fill="#00160A"/>
</svg>
